<svg width="298" height="90" viewBox="0 0 298 90" fill="none" xmlns="http://www.w3.org/2000/svg">
<path d="M164 87.5V8C164 5.23858 166.239 3 169 3H199C201.761 3 204 5.23858 204 8V11H272.5C275.261 11 277.5 13.2386 277.5 16V21H289.871C293.193 21 295.592 24.1795 294.679 27.3736L277.5 87.5H164Z" fill="#FFE68E"/>
<path fill-rule="evenodd" clip-rule="evenodd" d="M169 5.5C167.619 5.5 166.5 6.61929 166.5 8V70.9039L181.024 23.7906C181.993 20.6455 184.9 18.5 188.191 18.5H275V16C275 14.6193 273.881 13.5 272.5 13.5H201.5V8C201.5 6.61929 200.381 5.5 199 5.5H169ZM280 18.5H289.871C294.854 18.5 298.452 23.2693 297.083 28.0604L279.386 90H161.5V8C161.5 3.85786 164.858 0.5 169 0.5H199C203.142 0.5 206.5 3.85786 206.5 8V8.5H272.5C276.642 8.5 280 11.8579 280 16V18.5ZM167.387 85H275.614L292.275 26.6868C292.731 25.0898 291.532 23.5 289.871 23.5H188.191C187.094 23.5 186.125 24.2152 185.802 25.2635L167.387 85Z" fill="#8E0991"/>
<path d="M3 72V15.8189C3 15.2766 3.08488 14.7361 3.27072 14.2266C4.00094 12.2247 4.77392 10.7907 5.77388 9.73009C7.03195 8.39567 8.64931 7.65211 10.9928 7.11156C11.3291 7.03399 11.674 7 12.0191 7H115.57C115.856 7 116.143 7.02391 116.424 7.07595C119.686 7.67884 121.653 8.49893 122.891 9.73009C124.089 10.9221 124.603 12.4994 124.945 14.638C124.983 14.8785 125 15.1223 125 15.3658V72C124.679 75.9098 124.036 78.4661 122.891 80.1676C121.475 82.2706 119.292 83.0676 116 83.5H11.5C9.02368 83.2585 7.1455 82.9082 5.77388 81.4774C4.30781 79.9481 3.42046 77.1845 3 72Z" fill="#FFE68E"/>
<path fill-rule="evenodd" clip-rule="evenodd" d="M10.4309 4.67552C10.9755 4.54991 11.5112 4.5 12.0191 4.5H115.57C115.994 4.5 116.434 4.53541 116.879 4.61759C120.273 5.24508 122.866 6.17875 124.654 7.95774C126.431 9.72527 127.049 11.9644 127.413 14.2439C127.475 14.6297 127.5 15.0064 127.5 15.3658V72.1025L127.492 72.2046C127.164 76.1972 126.487 79.3022 124.965 81.5635C122.926 84.5926 119.803 85.522 116.326 85.9787L116.163 86H11.3784L11.2573 85.9882C8.81942 85.7505 6.04632 85.3742 3.9692 83.2075C1.84284 80.9894 0.930503 77.4095 0.508181 72.2021L0.5 72.1012V15.8189C0.5 15.018 0.625196 14.1839 0.922081 13.3699C1.706 11.2208 2.62264 9.42817 3.95484 8.01513C5.68766 6.17715 7.84512 5.27196 10.4309 4.67552ZM12.0191 9.5C11.8367 9.5 11.6827 9.51806 11.5547 9.5476C10.8407 9.71229 10.2449 9.88821 9.73877 10.0813L48.6075 47.5776C55.4056 52.4762 59.9844 54.65 64.4059 54.7037C68.8191 54.7574 73.6322 52.7021 80.8905 47.5768L118.813 10.2369C118.08 9.98981 117.152 9.75289 115.97 9.5343C115.851 9.51242 115.718 9.5 115.57 9.5H12.0191ZM122.252 13.8676L86.3118 49.2557L121.847 76.2359C122.123 75.1404 122.346 73.7297 122.5 71.8963V15.3658C122.5 15.2381 122.491 15.1274 122.476 15.0322C122.406 14.5949 122.332 14.2094 122.252 13.8676ZM118.901 80.2769L82.4365 52.5912C75.6319 57.2408 70.0564 59.7728 64.3451 59.7034C58.6767 59.6345 53.3591 57.0058 47.0651 52.6139L10.6194 80.8829C10.9233 80.9244 11.2566 80.9631 11.6234 81H115.833C117.171 80.8167 118.154 80.5829 118.901 80.2769ZM6.50213 77.7487L43.1861 49.2949L6.21185 13.6263C6.01702 14.0504 5.82028 14.5325 5.61936 15.0833C5.54456 15.2884 5.5 15.5352 5.5 15.8189V71.8977C5.73066 74.681 6.0915 76.5184 6.50213 77.7487Z" fill="#8E0991"/>
</svg>
