<svg width="160" height="142" viewBox="0 0 160 142" fill="none" xmlns="http://www.w3.org/2000/svg">
<path fill-rule="evenodd" clip-rule="evenodd" d="M79.7002 40.003C85.223 40.003 89.7002 44.4801 89.7002 50.003V88.003C89.7002 93.5258 85.223 98.003 79.7002 98.003C74.1773 98.003 69.7002 93.5258 69.7002 88.003V50.003C69.7002 44.4801 74.1773 40.003 79.7002 40.003Z" fill="#8E0991"/>
<path d="M87.7002 114.503C87.7002 119.197 83.8946 123.003 79.2002 123.003C74.5057 123.003 70.7002 119.197 70.7002 114.503C70.7002 109.809 74.5057 106.003 79.2002 106.003C83.8946 106.003 87.7002 109.809 87.7002 114.503Z" fill="#8E0991"/>
<path fill-rule="evenodd" clip-rule="evenodd" d="M66.7104 7.49888C72.4842 -2.49963 86.9161 -2.49963 92.6899 7.49889L157.368 119.502C163.142 129.502 155.926 142.003 144.378 142.003H15.0224C3.4748 142.003 -3.742 129.502 2.03265 119.502L66.7104 7.49888ZM84.0301 12.4996C82.1055 9.16679 77.2948 9.16679 75.3702 12.4996L10.6925 124.503C8.76759 127.836 11.1732 132.003 15.0224 132.003H144.378C148.227 132.003 150.633 127.836 148.708 124.503L84.0301 12.4996Z" fill="#8E0991"/>
</svg>
