<svg width="535" height="95" viewBox="0 0 535 95" fill="none" xmlns="http://www.w3.org/2000/svg">
<path d="M488.745 10.6353C490.241 6.0287 496.759 6.0287 498.255 10.6353L503.94 28.1307C504.609 30.1908 506.529 31.5856 508.695 31.5856H527.091C531.935 31.5856 533.948 37.7837 530.03 40.6307L515.147 51.4435C513.395 52.7167 512.662 54.9736 513.331 57.0337L519.016 74.5291C520.512 79.1357 515.24 82.9663 511.321 80.1193L496.439 69.3065C494.686 68.0333 492.314 68.0333 490.561 69.3065L475.679 80.1193C471.76 82.9663 466.488 79.1357 467.984 74.5291L473.669 57.0337C474.338 54.9735 473.605 52.7167 471.853 51.4435L456.97 40.6307C453.051 37.7837 455.065 31.5856 459.909 31.5856H478.305C480.471 31.5856 482.391 30.1908 483.06 28.1307L488.745 10.6353Z" fill="#FFE68E"/>
<path d="M54.5788 57.6818H97.642C98.7632 57.6818 99.8386 57.2349 100.631 56.4392L105.101 51.9545M54.5788 35.197H63.8799L69.376 42.4091L72.722 37.22C73.3576 36.2344 74.7745 36.1785 75.4852 37.1111L79.5226 42.4091L83.7504 35.197L87.2499 39.4611C88.4008 40.8634 90.6029 40.6394 91.4499 39.034L93.4743 35.197H99.3932L107.705 43.2285C109.409 44.8754 109.435 47.6053 107.762 49.2843L105.101 51.9545M105.101 51.9545H63.8799M151.897 43.8158H146.178C144.423 43.8158 143 45.2311 143 46.9771V89.3387C143 91.0846 144.423 92.5 146.178 92.5H207.822C209.577 92.5 211 91.0846 211 89.3387V46.9771C211 45.2311 209.577 43.8158 207.822 43.8158H204.963M151.897 43.8158V22.0027C154.439 -4.39492 201.785 -3.60389 204.963 22.0027V43.8158M151.897 43.8158H159.841M204.963 43.8158H196.065M196.065 43.8158V24.0698C196.065 23.851 196.043 23.6286 195.993 23.4154C192.265 7.3257 167.241 4.32323 160.033 23.2216C159.904 23.5583 159.841 23.9248 159.841 24.2849V43.8158M196.065 43.8158H159.841M250.714 17.8109H249.405C246.972 17.8109 245 15.8385 245 13.4055C245 10.9724 246.972 9 249.405 9H304.595C307.028 9 309 10.9724 309 13.4055C309 15.8385 307.028 17.8109 304.595 17.8109H302.714M250.714 17.8109C248.256 31.3689 251.634 37.2579 266.625 43.7218C267.366 44.0416 267.857 44.77 267.857 45.5776V47.5947C267.857 48.5434 267.185 49.357 266.264 49.5817C252.374 52.9681 250.518 60.8941 250.714 77.5721M250.714 17.8109H302.714M250.714 77.5721H249.214C246.887 77.5721 245 79.4588 245 81.7861C245 84.1134 246.887 86 249.214 86H304.786C307.113 86 309 84.1134 309 81.7861C309 79.4588 307.113 77.5721 304.786 77.5721H302.714M250.714 77.5721H302.714M302.714 17.8109C303.789 33.4906 300.209 39.4289 286.43 43.8058C285.585 44.074 285 44.8518 285 45.7379V47.59C285 48.5408 285.671 49.3554 286.596 49.5755C302.248 53.3 302.774 62.0887 302.714 77.5721M343 22.3436V76.5815C343 78.5522 344.608 80.1498 346.591 80.1498H350.541M343 22.3436L359.878 7M343 22.3436H356.287C358.271 22.3436 359.878 20.746 359.878 18.7753V7M359.878 7H395.79C397.773 7 399.381 8.59757 399.381 10.5683V15.9207M399.381 15.9207V76.5815C399.381 78.5522 397.773 80.1498 395.79 80.1498H350.541M399.381 15.9207H404.409C406.392 15.9207 408 17.5183 408 19.489V84.4317C408 86.4024 406.392 88 404.409 88H354.133C352.149 88 350.541 86.4024 350.541 84.4317V80.1498M358.442 52.3172H385.376M385.376 63.3789H358.442M358.442 40.185H385.376M58.8066 47.5C58.8066 62.964 46.3138 75.5 30.9033 75.5C15.4927 75.5 3 62.964 3 47.5C3 32.036 15.4927 19.5 30.9033 19.5C46.3138 19.5 58.8066 32.036 58.8066 47.5ZM31.7488 47.2034C31.7488 52.1361 27.9632 56.1348 23.2933 56.1348C18.6234 56.1348 14.8378 52.1361 14.8378 47.2034C14.8378 42.2707 18.6234 38.272 23.2933 38.272C27.9632 38.272 31.7488 42.2707 31.7488 47.2034ZM174.14 70.881V75.2103C174.14 76.7816 175.421 78.0555 177 78.0555C178.579 78.0555 179.86 76.7816 179.86 75.2103V70.5532C179.86 69.6912 180.222 68.8745 180.82 68.2507C182.842 66.1415 183.694 64.415 183.037 61.9328C181.475 56.0248 173.456 55.0103 170.775 61.5966C170.685 61.816 170.629 62.0515 170.604 62.287C170.284 65.3387 171.006 66.7793 172.779 68.2143C173.597 68.8762 174.14 69.8321 174.14 70.881ZM262.045 31.2189H291.018C292.039 31.2189 292.404 32.5679 291.523 33.0825L281.888 38.7079C278.856 40.4787 275.116 40.5288 272.037 38.8399L261.564 33.0957C260.657 32.598 261.011 31.2189 262.045 31.2189ZM262.476 69.194H290.617C291.664 69.194 292.007 67.7888 291.077 67.3065L281.466 62.318C278.657 60.8598 275.322 60.8179 272.477 62.2052L262.037 67.2952C261.084 67.76 261.415 69.194 262.476 69.194ZM488.745 10.6353C490.241 6.0287 496.759 6.0287 498.255 10.6353L503.94 28.1307C504.609 30.1908 506.529 31.5856 508.695 31.5856H527.091C531.935 31.5856 533.948 37.7837 530.03 40.6307L515.147 51.4435C513.395 52.7167 512.662 54.9736 513.331 57.0337L519.016 74.5291C520.512 79.1357 515.24 82.9663 511.321 80.1193L496.439 69.3065C494.686 68.0333 492.314 68.0333 490.561 69.3065L475.679 80.1193C471.76 82.9663 466.488 79.1357 467.984 74.5291L473.669 57.0337C474.338 54.9735 473.605 52.7167 471.853 51.4435L456.97 40.6307C453.051 37.7837 455.065 31.5856 459.909 31.5856H478.305C480.471 31.5856 482.391 30.1908 483.06 28.1307L488.745 10.6353Z" stroke="#8E0991" stroke-width="5"/>
</svg>
